<?xml version="1.0" standalone="no"?><!DOCTYPE svg PUBLIC "-//W3C//DTD SVG 1.1//EN" "http://www.w3.org/Graphics/SVG/1.1/DTD/svg11.dtd"><svg t="1592292038440" class="icon hot" viewBox="0 0 1699 1024" version="1.1" xmlns="http://www.w3.org/2000/svg" xmlns:xlink="http://www.w3.org/1999/xlink" p-id="3568" width="14" height="14"><path d="M1698.343 511.726c0 163.495-350.168 512.274-849.172 512.274C362.866 1024 0 680.96 0 511.726 0 342.515 364.435 0 849.17 0c502.928 0 849.29 342.515 849.173 511.726zM849.92 93.44c-226.001 0-409.211 187.405-409.211 418.562 0 231.16 183.208 418.563 409.211 418.563 226.07 0 409.285-187.405 409.285-418.563S1075.99 93.441 849.919 93.441z" p-id="3569" fill="#13227a"></path><path d="M849.17 244.783c-143.922 0-260.599 119.318-260.599 266.521 0 147.188 116.677 266.528 260.6 266.528 143.924 0 260.552-119.34 260.552-266.528 0-147.203-116.628-266.521-260.552-266.521z" p-id="3570" fill="#13227a"></path></svg>