<?xml version="1.0" standalone="no"?><!DOCTYPE svg PUBLIC "-//W3C//DTD SVG 1.1//EN" "http://www.w3.org/Graphics/SVG/1.1/DTD/svg11.dtd"><svg t="1588826775588" class="icon" viewBox="0 0 1024 1024" version="1.1" xmlns="http://www.w3.org/2000/svg" p-id="2167" xmlns:xlink="http://www.w3.org/1999/xlink" width="200" height="200"><defs><style type="text/css"></style></defs><path d="M386.844444 91.022222H182.044444c-56.888889 0-102.4 45.511111-102.4 102.4V398.222222c0 56.888889 45.511111 108.088889 102.4 108.088889h199.111112c56.888889 0 102.4-45.511111 102.4-108.088889V199.111111c5.688889-62.577778-39.822222-108.088889-96.711112-108.088889z m-227.555555 108.088889c0-17.066667 11.377778-28.444444 22.755555-28.444444h199.111112c17.066667 0 28.444444 11.377778 28.444444 28.444444V398.222222c0 17.066667-11.377778 28.444444-28.444444 28.444445H182.044444c-11.377778-5.688889-22.755556-17.066667-22.755555-28.444445V199.111111zM386.844444 546.133333H182.044444c-56.888889 0-102.4 45.511111-102.4 102.4V853.333333c0 56.888889 45.511111 108.088889 102.4 108.088889h199.111112c56.888889 0 102.4-45.511111 102.4-108.088889v-199.111111c5.688889-62.577778-39.822222-108.088889-96.711112-108.088889z m-227.555555 108.088889c0-17.066667 11.377778-28.444444 22.755555-28.444444h199.111112c17.066667 0 28.444444 11.377778 28.444444 28.444444V853.333333c0 17.066667-11.377778 28.444444-28.444444 28.444445H182.044444c-17.066667 0-28.444444-11.377778-28.444444-28.444445v-199.111111zM841.955556 659.911111h-199.111112c-56.888889 0-102.4 51.2-102.4 113.777778v68.266667c0 62.577778 45.511111 113.777778 102.4 113.777777h199.111112c28.444444 0 51.2-11.377778 73.955555-28.444444 22.755556-22.755556 34.133333-51.2 34.133333-79.644445v-68.266666c-5.688889-68.266667-51.2-119.466667-108.088888-119.466667z m-227.555556 113.777778c0-17.066667 11.377778-28.444444 28.444444-28.444445h199.111112c17.066667 0 28.444444 11.377778 28.444444 28.444445v68.266667c0 17.066667-11.377778 28.444444-28.444444 28.444444h-199.111112c-17.066667 0-28.444444-11.377778-28.444444-28.444444v-68.266667zM841.955556 91.022222h-199.111112c-56.888889 0-102.4 45.511111-102.4 102.4V512c0 56.888889 45.511111 102.4 102.4 102.4h199.111112c28.444444 0 56.888889-11.377778 73.955555-28.444444 17.066667-17.066667 28.444444-45.511111 28.444445-68.266667V193.422222c0-56.888889-45.511111-102.4-102.4-102.4z m-227.555556 102.4c0-17.066667 11.377778-28.444444 28.444444-28.444444h199.111112c17.066667 0 28.444444 11.377778 28.444444 28.444444V512c0 17.066667-11.377778 28.444444-28.444444 28.444444h-199.111112c-17.066667 0-28.444444-11.377778-28.444444-28.444444V193.422222z" fill="#dbdbdb" p-id="2168"></path></svg>