<?xml version="1.0" standalone="no"?><!DOCTYPE svg PUBLIC "-//W3C//DTD SVG 1.1//EN" "http://www.w3.org/Graphics/SVG/1.1/DTD/svg11.dtd"><svg t="1588826922381" class="icon" viewBox="0 0 1024 1024" version="1.1" xmlns="http://www.w3.org/2000/svg" p-id="2198" xmlns:xlink="http://www.w3.org/1999/xlink" width="200" height="200"><defs><style type="text/css"></style></defs><path d="M79.409548 453.202581c0-18.233806 14.831484-33.032258 33.032258-33.032258h67.451871v-0.198194a32.867097 32.867097 0 0 0 23.353807-55.956645l0.29729-0.264258-47.69858-47.731613a32.701935 32.701935 0 0 1-9.678452-23.320774c0-8.819613 3.435355-17.11071 9.678452-23.353807l94.141935-94.141935a33.098323 33.098323 0 0 1 46.740645 0l47.665549 47.665548 0.29729-0.29729a32.867097 32.867097 0 0 0 55.956645-23.353807h0.132129V131.79871c0-18.167742 14.831484-33.032258 33.032258-33.032258h133.186065c18.167742 0 33.032258 14.864516 33.032258 33.032258v66.989419c0 0.165161-0.099097 0.330323-0.099097 0.462452 0 19.422968 15.756387 35.179355 35.179355 35.179354 10.801548 0 20.116645-5.12 26.590968-12.783483l46.476387-46.443355a33.758968 33.758968 0 0 1 46.67458 0l94.141936 94.174968c6.276129 6.276129 9.711484 14.534194 9.711484 23.353806a32.801032 32.801032 0 0 1-9.678452 23.353806l-47.698581 47.698581 1.057033 1.057032a32.04129 32.04129 0 0 0-6.077936 18.002581c0 16.648258 12.552258 29.861161 28.672 32.04129v0.990968h67.451871c18.167742 0 33.032258 14.798452 33.032258 33.032258v133.153032c0 18.200774-14.864516 33.032258-33.032258 33.032258h-67.451871v2.014968c-2.972903-0.891871-5.945806-1.849806-9.249032-1.849806a32.900129 32.900129 0 0 0-32.834065 32.867096c0 11.330065 6.077935 20.810323 14.798452 26.75613l-0.924903 0.89187 47.69858 47.731613a32.701935 32.701935 0 0 1 9.678452 23.320775 32.801032 32.801032 0 0 1-9.678452 23.353806l-94.174967 94.174968a33.792 33.792 0 0 1-46.707613 0l-47.698581-47.698581-0.264258 0.264258a32.867097 32.867097 0 0 0-55.956645 23.386839h-0.165161v67.451871c0 18.200774-14.864516 33.032258-33.032258 33.032258h-133.153033c-18.200774 0-33.032258-14.831484-33.032258-33.032258v-65.668129c0-0.627613 0.330323-1.156129 0.330323-1.783742a32.867097 32.867097 0 0 0-55.923613-23.353807l-0.330323-0.29729-47.632516 47.698581a33.131355 33.131355 0 0 1-46.740645 0l-94.141935-94.141936a32.801032 32.801032 0 0 1-9.678452-23.386838c0-8.819613 3.435355-17.11071 9.678452-23.353807l47.69858-47.698581-0.330322-0.29729a32.834065 32.834065 0 0 0-23.353807-55.923613v-0.165161H112.474839c-18.200774 0-33.032258-14.798452-33.032258-33.032258v-133.12z m23.353807 231.225806a98.270968 98.270968 0 0 0 6.375226 132.459355l94.141935 94.141935a98.766452 98.766452 0 0 0 70.028387 28.969291c22.065548 0 43.833806-7.729548 61.902452-22.296774 5.12 49.911742 46.872774 89.121032 98.105806 89.121032h133.12c51.365161 0 93.217032-39.407484 98.171871-89.451355a97.973677 97.973677 0 0 0 132.426323-6.342194l94.141935-94.141935a98.502194 98.502194 0 0 0 3.435355-135.993807 99.096774 99.096774 0 0 0 96.916645-98.865548v-133.12a98.931613 98.931613 0 0 0-86.214193-97.841548 98.304 98.304 0 0 0-9.612387-128.42942l-94.141936-94.141935c-36.203355-36.269419-98.237935-37.095226-136.125935-3.237161A98.964645 98.964645 0 0 0 566.99871 32.701935h-133.186065c-51.332129 0-93.184 39.407484-98.105806 89.51742-38.912-31.777032-96.222968-29.960258-132.459355 6.276129l-94.141936 94.141935a98.436129 98.436129 0 0 0-29.002322 70.094452c0 23.122581 8.258065 44.725677 22.693161 62.331871-50.076903 4.954839-89.451355 46.80671-89.451355 98.138839v133.153032a98.865548 98.865548 0 0 0 89.418323 98.105806z" p-id="2199" fill="#e6e6e6"></path><path d="M499.877161 437.115871a91.136 91.136 0 0 1 91.036904 91.036903 91.136 91.136 0 0 1-91.036904 91.036903 91.136 91.136 0 0 1-91.036903-91.036903 91.136 91.136 0 0 1 91.036903-91.036903m0 248.138323a157.266581 157.266581 0 0 0 157.10142-157.10142 157.233548 157.233548 0 0 0-157.10142-157.101419 157.233548 157.233548 0 0 0-157.101419 157.101419 157.266581 157.266581 0 0 0 157.101419 157.10142" p-id="2200" fill="#e6e6e6"></path></svg>