<?xml version="1.0" standalone="no"?><!DOCTYPE svg PUBLIC "-//W3C//DTD SVG 1.1//EN" "http://www.w3.org/Graphics/SVG/1.1/DTD/svg11.dtd"><svg t="1588826331759" class="icon" viewBox="0 0 1024 1024" version="1.1" xmlns="http://www.w3.org/2000/svg" p-id="4503" xmlns:xlink="http://www.w3.org/1999/xlink" width="200" height="200"><defs><style type="text/css"></style></defs><path d="M957.2 96.6H66.8C30 96.6 0 126.6 0 163.4v534.3c0 36.8 30 66.8 66.8 66.8h311.7v118.4H178.1c-12.2 0-22.3 10-22.3 22.3s10 22.3 22.3 22.3h667.8c12.2 0 22.3-10 22.3-22.3s-10-22.3-22.3-22.3H645.6V764.4h311.7c36.8 0 66.8-30 66.8-66.8V163.4c-0.1-36.8-30.1-66.8-66.9-66.8zM44.5 163.4c0-12.3 10-22.3 22.3-22.3h890.4c12.3 0 22.3 10 22.3 22.3v423h-935v-423zM601 882.9H423V764.4h178v118.5z m378.5-185.2c0 12.3-10 22.3-22.3 22.3H66.8c-12.3 0-22.3-10-22.3-22.3v-66.8h935v66.8z" fill="#e6e6e6" p-id="4504"></path><path d="M512 675.4m-22.3 0a22.3 22.3 0 1 0 44.6 0 22.3 22.3 0 1 0-44.6 0Z" fill="#e6e6e6" p-id="4505"></path></svg>