<?xml version="1.0" standalone="no"?><!DOCTYPE svg PUBLIC "-//W3C//DTD SVG 1.1//EN" "http://www.w3.org/Graphics/SVG/1.1/DTD/svg11.dtd"><svg t="1588826304151" class="icon" viewBox="0 0 1049 1024" version="1.1" xmlns="http://www.w3.org/2000/svg" p-id="3632" xmlns:xlink="http://www.w3.org/1999/xlink" width="204.8828125" height="200"><defs><style type="text/css"></style></defs><path d="M954.313334 328.487676a44.569917 44.569917 0 0 0-44.569917 44.446796V824.912829A109.701094 109.701094 0 0 1 800.288566 934.983287H198.717807A109.824215 109.824215 0 0 1 88.893591 824.912829V221.618372a107.361789 107.361789 0 0 1 107.238668-107.238668h581.255741a44.446796 44.446796 0 0 0 0-88.893591H196.132259A196.255381 196.255381 0 0 0 0 221.618372v603.294457a198.96405 198.96405 0 0 0 198.717807 199.087171H800.288566A198.96405 198.96405 0 0 0 998.76013 824.912829V372.934472a44.446796 44.446796 0 0 0-44.446796-44.446796z" fill="#e6e6e6" p-id="3633"></path><path d="M1036.435253 13.173981a44.569917 44.569917 0 0 0-62.914993 0L571.036672 411.717687a44.446796 44.446796 0 0 0 62.668751 63.161236l402.360466-398.91307a43.338704 43.338704 0 0 0 13.173981-31.272815 44.077432 44.077432 0 0 0-12.804617-31.519057zM169.414933 775.664302A42.353733 42.353733 0 0 0 209.30624 819.864855h609.696766a44.693038 44.693038 0 0 0 0-88.893591H209.30624A42.353733 42.353733 0 0 0 169.414933 775.664302zM548.012985 519.571961H209.30624a44.693038 44.693038 0 0 0 0 88.893591h338.706745a44.693038 44.693038 0 0 0 0-88.893591z" fill="#e6e6e6" p-id="3634"></path></svg>